<svg xmlns="http://www.w3.org/2000/svg" xml:space="preserve" style="enable-background:new 0 0 633.4 119.4" viewBox="0 0 633.4 119.4"><path d="M54.9 63.9 26.1 47.3c-8.4-4.8-12.6-11.4-12.6-19.8 0-5.8 2.1-10.4 6.4-14 4.2-3.6 9.8-5.3 16.6-5.3 6.6 0 12.7 1.9 18.3 5.6 5.6 3.8 9.2 9.2 10.8 16.3l1.8 7h2.8l-2-19.8C58.8 9.5 48.7 5.6 37.7 5.6c-8.9 0-16.1 2.3-21.7 7-5.6 4.6-8.4 10.6-8.4 17.8 0 9.8 5.2 17.6 15.5 23.6l28.8 16.5c9.8 5.6 14.6 12.6 14.6 21.2 0 6-2.4 11-7.1 14.9-4.7 3.9-11 5.9-18.8 5.9-7.4 0-14.2-1.9-20.5-5.6-6.2-3.9-10.2-9.6-11.9-17.3l-1.6-7.8H3.9l2 21.1c4 3.9 9 7 15 9.1 6 2.2 12.1 3.3 18.2 3.3 9.8 0 17.9-2.5 24.4-7.5s9.8-11.3 9.8-18.8c.1-9.5-6.1-17.8-18.4-25.1zM110.4 103.3c-4.3 4.6-7.9 6.9-10.7 6.9-2.5 0-4.3-.9-5.3-2.8s-1.5-4.7-1.5-8.6V44.3h19.6v-4.1h-2L93 41V19.9h-1.9l-4.4 21.4-13.9 1v2h13.9v55.3c0 9.9 3.6 14.8 10.7 14.8 2.6 0 5-.7 7-2 2-1.4 4.6-3.8 7.7-7.3l1.3-1.6-1.6-1.6-1.4 1.4zM174.8 109V40.4h-1.9l-15.1 1v1.9l10.7 1.2v43.2l-3.4 7.2c-4.9 10.2-11 15.4-18.3 15.4-4.7 0-8.3-1.8-10.8-5.3-2.5-3.6-3.8-8.7-3.8-15.3V40.4h-1.8l-13.9 1v1.9l9.4 1.2v45.8c0 7.9 1.6 14 4.8 18.1 3.2 4.2 7.7 6.3 13.7 6.3 9.9 0 17.3-6.4 22.4-19.3l2.2-5.6h.3l-.4 14.8-.3 8.8h1.8l13.9-.7v-1.9l-7-.7-2.5-1.1zM242.2 109V4.1H240l-18.3 2V8l14.2 1v36.4c-6.1-4.5-12.6-6.7-19.6-6.7-9.4 0-17.1 3.7-23.1 11-6 7.4-9.1 16.8-9.1 28.3 0 10.8 2.6 19.7 7.9 26.6 5.3 6.9 12.1 10.3 20.6 10.3 9.3 0 16.6-4.5 22.1-13.6l.7-1.2h.7l-.1 4.4-.1 8.8h1.8l13.9-.7v-1.9l-7-.7-2.4-1zm-6.3-11.3-1.2 1.6c-6 7.7-12.4 11.6-19.5 11.6-7.3 0-13.2-3.3-17.8-9.8-4.5-6.5-6.8-15-6.8-25.3 0-10 2.4-18.3 7.1-24.8 4.7-6.5 10.7-9.7 17.9-9.7 5.8 0 11.3 2.4 16.5 7.2l3.7 3.4v45.8zM271.2 108.9V40.2h-1.6l-15.2 2.1V44l10.5 1.1v63.8l-2.9 1.7-7.6.5v2h27.5v-2l-7.8-.5zM312.3 38.8c-9.3 0-16.9 3.6-22.8 10.7-5.9 7.1-8.9 16.3-8.9 27.5 0 11.3 2.9 20.5 8.6 27.7 5.7 7.1 13.1 10.7 22.3 10.7 9.4 0 17-3.6 22.9-10.7 5.9-7.1 8.9-16.3 8.9-27.7 0-11.2-2.9-20.4-8.6-27.5-5.7-7.2-13.2-10.7-22.4-10.7zm17.8 64.1c-4.3 6.3-10 9.5-16.9 9.5-7.7 0-14-3.4-18.7-10.2-4.8-6.8-7.2-15.7-7.2-26.6 0-10 2.2-18.1 6.5-24.4 4.3-6.3 10-9.4 16.9-9.4 7.7 0 14 3.4 18.7 10.1 4.8 6.7 7.2 15.6 7.2 26.6 0 9.9-2.2 18-6.5 24.4zM413 5.3h-7v1.5l2.9 7.6-37.2 95.3-7.8 1.5v2h24.7v-2l-12.4-1.3V107l12.1-31.3h44l12 31.3v2.8l-13.3 1.3v2h30v-2l-7.8-1.5L413 5.3zm-23.6 67.6 21.1-54.4 20.9 54.4h-42zM563.6 109V4.1h-2.2l-18.3 2V8l14.2 1v36.4c-6.1-4.5-12.6-6.7-19.6-6.7-9.4 0-17.1 3.7-23.1 11-6 7.4-9.1 16.8-9.1 28.3 0 10.8 2.6 19.7 7.9 26.6 5.3 6.9 12.1 10.3 20.6 10.3 9.3 0 16.6-4.5 22.1-13.6l.7-1.2h.7l-.1 4.4-.1 8.8h1.8l13.9-.7v-1.9l-7-.7-2.4-1zm-6.3-11.3-1.2 1.6c-6 7.7-12.4 11.6-19.5 11.6-7.3 0-13.2-3.3-17.8-9.8-4.5-6.5-6.8-15-6.8-25.3 0-10 2.4-18.3 7.1-24.8 4.7-6.5 10.7-9.7 17.9-9.7 5.8 0 11.3 2.4 16.5 7.2l3.7 3.4v45.8zM629.6 73.3c.2-10.9-2.1-19.4-7-25.5-4.8-6-11.2-9.1-19.1-9.1-8.9 0-16.2 3.6-22 10.8-5.8 7.2-8.6 16.7-8.6 28.4 0 11.1 2.8 20.1 8.4 27 5.6 6.9 12.7 10.3 21.3 10.3 10.6 0 19.2-5.9 25.6-17.9l-1.9-1.3c-6 9.7-13.1 14.5-21.4 14.5-7.9 0-14.2-3.3-18.9-10-4.7-6.7-7-15.2-7-25.7v-1.6h50.6zm-43.3-23.9c4-5.3 9.1-8 15.4-8 6.5 0 11.7 2.8 15.6 8.3 3.9 5.5 5.7 12.4 5.5 20.7h-43.5c.6-8.7 3-15.7 7-21zM260.9 12.4h10.3v10.4h-10.3zM618.3 14.7l-31.5.8v4.1h31.5zM484.7 58.2c2-4.1 4.5-7 7.3-8.6 2.8-1.7 6.3-2.5 10.4-2.5h7v-6.7h-5.1c-9.4 0-16.3 5.2-20.9 15.7l-3.5 8.5h-.6l.4-12 .3-12.3h-1.6l-15.2 2V44l10.5 1v63.8l-2.6 1.8-5.1.3v2.2h32.1v-2l-13.2-.4-5-1.8V68l4.8-9.8z" fill="currentColor" /></svg>